# xmcd
#
# Track frame offsets:
#	150
#	23230
#	59636
#	88397
#
# Disc length: 1616 seconds
#
# Revision: 1
# Processed by: cddbd v1.4PL0 Copyright (c) Steve Scherf et al.
# Submitted via: audiograbber 1.80.04
#
DISCID=34064e04
DTITLE=Grateful Dead - Miami 4-7-91 disc 3
DYEAR=1900
DGENRE=
TTITLE0=Box of Rain
TTITLE1=Going Down the Road Feeling Bad
TTITLE2=Turn on Your Love Light
TTITLE3=It's All Over Now, Baby Blue
EXTD=
EXTT0=
EXTT1=
EXTT2=
EXTT3=
PLAYORDER=
